<?xml version="1.0" standalone="no"?>
<!DOCTYPE svg PUBLIC "-//W3C//DTD SVG 20010904//EN"
 "http://www.w3.org/TR/2001/REC-SVG-20010904/DTD/svg10.dtd">
<svg version="1.0" xmlns="http://www.w3.org/2000/svg"
 width="512.000000pt" height="512.000000pt" viewBox="0 0 512.000000 512.000000"
 preserveAspectRatio="xMidYMid meet">

<g transform="translate(0.000000,512.000000) scale(0.100000,-0.100000)"
fill="#000000" stroke="none">
<path d="M2256 3829 c-1169 -67 -2072 -511 -2232 -1100 -24 -86 -24 -252 0
-338 151 -556 955 -982 2046 -1085 548 -52 1139 -14 1630 105 757 184 1282
552 1397 979 23 87 23 253 0 340 -88 326 -415 621 -912 823 -529 216 -1231
316 -1929 276z m774 -224 c594 -60 1111 -220 1470 -455 116 -76 272 -230 324
-318 107 -185 107 -359 0 -544 -51 -86 -207 -240 -324 -317 -398 -265 -1013
-434 -1715 -472 -587 -31 -1265 67 -1735 253 -41 16 -79 33 -83 37 -4 4 11 82
33 173 l42 166 236 5 c263 5 303 12 424 73 101 51 213 164 261 265 54 113 80
226 75 331 -4 75 -9 96 -41 161 -59 120 -163 200 -293 227 -32 7 -154 10 -314
8 l-262 -3 -26 -30 c-23 -26 -48 -112 -181 -645 -85 -338 -158 -619 -162 -624
-13 -15 -176 91 -292 188 -71 60 -166 181 -203 261 -46 97 -62 194 -46 288 67
392 610 740 1406 902 198 40 431 71 631 84 186 13 583 5 775 -14z m-1347 -626
c81 -22 146 -111 147 -199 0 -58 -34 -183 -65 -235 -56 -97 -175 -176 -292
-195 -90 -15 -373 -13 -373 3 0 6 34 153 77 325 l78 312 195 0 c107 0 212 -5
233 -11z"/>
<path d="M2392 3495 c-18 -15 -36 -42 -41 -63 -20 -77 -213 -1159 -214 -1195
0 -55 45 -99 102 -101 33 0 47 5 71 29 29 30 32 42 100 415 38 212 72 391 75
398 6 15 361 17 417 2 40 -12 84 -57 95 -98 4 -18 -14 -127 -52 -312 -32 -157
-60 -301 -62 -320 -8 -79 77 -141 145 -106 18 9 38 26 46 39 22 34 136 597
136 672 0 133 -79 254 -202 311 -62 29 -65 29 -274 32 l-211 3 19 102 c10 56
16 116 13 133 -7 42 -45 75 -92 81 -32 4 -45 0 -71 -22z"/>
<path d="M3560 3173 c-30 -27 -38 -55 -195 -683 -91 -360 -165 -665 -165 -677
0 -59 48 -103 114 -103 67 0 81 24 134 230 l47 185 235 6 c259 6 294 12 416
70 184 87 304 264 346 510 36 209 -113 430 -323 478 -24 6 -164 11 -311 11
l-268 0 -30 -27z m564 -194 c89 -22 156 -107 156 -197 0 -167 -102 -332 -247
-400 -56 -26 -64 -27 -269 -30 l-212 -3 80 320 80 321 185 0 c101 0 204 -5
227 -11z"/>
</g>
</svg>
